PathFileType	4	(X/Y/Z)	./resultDataOpenSim/trcMotMarkerGrf/sub09/qtm-05-03.trc
DataRate	CameraRate	NumFrames	NumMarkers	Units	OrigDataRate	OrigDataStartFrame	OrigNumFrames
250.000000	250.000000	7	24	m	250.000000	192	511
Frame#	Time	L.Toe.Tip			R.Toe.Tip			L.Ankle.Lat			R.Ankle.Lat			L.Ankle.Med			R.Ankle.Med			L.Heel			R.Heel			L.Knee.Lat			R.Knee.Lat			L.Knee.Med			R.Knee.Med			L.Thigh.Upper			R.Thigh.Upper			L.ASIS			R.ASIS			V.Sacral			L.Acromium			R.Acromium			C7			L.Elbow			R.Elbow			L.Wrist.Lat			R.Wrist.Lat
		X1	Y1	Z1	X2	Y2	Z2	X3	Y3	Z3	X4	Y4	Z4	X5	Y5	Z5	X6	Y6	Z6	X7	Y7	Z7	X8	Y8	Z8	X9	Y9	Z9	X10	Y10	Z10	X11	Y11	Z11	X12	Y12	Z12	X13	Y13	Z13	X14	Y14	Z14	X15	Y15	Z15	X16	Y16	Z16	X17	Y17	Z17	X18	Y18	Z18	X19	Y19	Z19	X20	Y20	Z20	X21	Y21	Z21	X22	Y22	Z22	X23	Y23	Z23	X24	Y24	Z24

192	0.764	0.12633325	-0.059357809	0.068866402	-0.64792426	0.060269247	0.1313816	-0.015652331	-0.027505833	0.0090398888	-0.70257175	0.20095208	0.16476319	-0.009362227	-0.0099758112	0.10683982	-0.64786783	0.19629657	0.08191857	-0.092339879	-0.06288356	0.042034154	-0.74236801	0.24086477	0.099709128	0.03788965	0.38165082	-0.039636079	-0.29146867	0.36704543	0.26012912	0.024874238	0.38688992	0.084187181	-0.27309522	0.33673686	0.13488286	-0.14258991	0.7636909	-0.098188992	-0.24726007	0.75508831	0.26147221	-0.082796925	0.85023861	-0.020450108	-0.13051653	0.8364042	0.21743047	-0.26852645	0.89633811	0.066938738	-0.11334198	1.2939651	-0.078561475	-0.17237149	1.3110268	0.24846007	-0.20671619	1.3515832	0.078304114	-0.28143377	0.97355881	-0.13990311	-0.30639007	0.96090171	0.31205096	-0.21516892	0.72633134	-0.19587621	-0.12715599	0.75214651	0.33243001
193	0.768	0.12642815	-0.059460035	0.068981696	-0.64243522	0.062453937	0.13256938	-0.015298616	-0.027719239	0.0091856077	-0.69053689	0.20587575	0.16590537	-0.0089440937	-0.010149466	0.10696415	-0.6365511	0.2000738	0.083439671	-0.092386085	-0.062746824	0.042327294	-0.72934848	0.24762128	0.10163257	0.041488107	0.38016113	-0.040130321	-0.27875185	0.36531057	0.26086841	0.029563229	0.38492248	0.083822015	-0.26054081	0.33515211	0.13532331	-0.13624534	0.76380175	-0.098969463	-0.24077999	0.75377282	0.26113996	-0.076209807	0.85064356	-0.020883596	-0.1241511	0.83586009	0.21693887	-0.26216237	0.89624218	0.067239509	-0.10599784	1.2939469	-0.078476824	-0.16457781	1.3109111	0.24862945	-0.19938183	1.3516119	0.078244835	-0.27298872	0.97291503	-0.13993479	-0.29964234	0.96136329	0.31128069	-0.20512762	0.7258383	-0.19598965	-0.12419201	0.74997007	0.33359582
194	0.772	0.12649975	-0.059538064	0.069054675	-0.63640022	0.064729444	0.13408856	-0.014968315	-0.027923491	0.0092545369	-0.67830282	0.21061266	0.16714426	-0.0086034628	-0.010285094	0.10703008	-0.62492299	0.2038748	0.08486363	-0.0923837	-0.062593942	0.042427457	-0.71599232	0.25428236	0.10341912	0.044845251	0.37895988	-0.040717238	-0.26584063	0.36374007	0.26146792	0.033705184	0.38304009	0.083402811	-0.24785529	0.33386459	0.1356513	-0.12982819	0.76391906	-0.099711664	-0.23429561	0.75259087	0.26082355	-0.069662455	0.85103999	-0.021192592	-0.11788925	0.83548008	0.2165177	-0.25583748	0.89628688	0.06746525	-0.098681936	1.2940447	-0.078374187	-0.1568982	1.3109069	0.24881608	-0.19214878	1.3518098	0.078228079	-0.26468579	0.97237281	-0.13975625	-0.29254692	0.96191623	0.31054467	-0.19505969	0.72551255	-0.1959359	-0.12120076	0.74796687	0.33474461
195	0.776	0.12651625	-0.059593514	0.069072206	-0.62971044	0.067190203	0.13588905	-0.014712193	-0.028138651	0.0092261819	-0.6659309	0.2151087	0.16846077	-0.0084057035	-0.010369374	0.10700752	-0.6130227	0.20763254	0.086179407	-0.092389685	-0.062474778	0.042367995	-0.70249247	0.26071359	0.10537261	0.047974053	0.37813902	-0.04145922	-0.25278978	0.36237613	0.26191201	0.037377816	0.38143359	0.082977446	-0.23500866	0.33292533	0.1359532	-0.12338764	0.76410468	-0.10030564	-0.2277302	0.75160028	0.26051389	-0.063190547	0.85144939	-0.021423694	-0.11173588	0.83528729	0.21615874	-0.24953835	0.89648111	0.067595465	-0.091385938	1.2942634	-0.078250311	-0.14935339	1.3110328	0.2490034	-0.18497624	1.3521509	0.078215731	-0.25648262	0.9719459	-0.13969853	-0.28519568	0.96257699	0.3098835	-0.1850096	0.72537645	-0.19567947	-0.11822202	0.74614898	0.33587868
196	0.78	0.12648095	-0.059633753	0.069050917	-0.62206663	0.069883962	0.13777459	-0.014540336	-0.028362492	0.0091235078	-0.65348206	0.21938204	0.16978416	-0.0083254808	-0.010407005	0.10691044	-0.60082727	0.21133998	0.087360757	-0.092428373	-0.062397968	0.042226121	-0.68897261	0.2668116	0.10760781	0.050839322	0.37774494	-0.042449686	-0.23963185	0.36124809	0.26218485	0.040683035	0.38023005	0.082613725	-0.22214273	0.33239921	0.13626339	-0.11693129	0.76443244	-0.10070816	-0.22109162	0.7508342	0.26022342	-0.056852931	0.851881	-0.021621838	-0.10569015	0.83529603	0.21585989	-0.24324799	0.89683479	0.067612347	-0.084102171	1.2946041	-0.07810163	-0.14194122	1.3113033	0.24917986	-0.17784819	1.352604	0.078184379	-0.24834057	0.97164372	-0.13988826	-0.27772399	0.9633599	0.30932797	-0.17495533	0.72542866	-0.19523228	-0.11527158	0.74452763	0.33698631
197	0.784	0.12642197	-0.05966919	0.069021358	-0.61317944	0.072796625	0.13962012	-0.014425607	-0.028567915	0.0089876814	-0.6409354	0.22349846	0.17105191	-0.0082976306	-0.010408854	0.10678354	-0.5883561	0.21505994	0.088406578	-0.092484818	-0.06234181	0.042065555	-0.67548534	0.27257391	0.10990812	0.053504462	0.37762475	-0.04354872	-0.22637315	0.3603706	0.2622862	0.043647001	0.3794444	0.082338692	-0.20948872	0.33234374	0.13659459	-0.11048306	0.76493822	-0.10093962	-0.21441462	0.75030891	0.25996888	-0.050645216	0.85233826	-0.021772121	-0.099746276	0.83551123	0.21562052	-0.23694239	0.89735897	0.067522099	-0.076824952	1.2950612	-0.077925864	-0.13465654	1.3117207	0.24934882	-0.17077244	1.3531508	0.078136586	-0.2402365	0.97146447	-0.1402114	-0.27030382	0.96427997	0.30890526	-0.16484637	0.72565455	-0.19463996	-0.11235693	0.74309929	0.33804528
198	0.788	0.12637167	-0.059706935	0.06900655	-0.60295217	0.075917745	0.14150461	-0.014323349	-0.028723509	0.008858651	-0.62817957	0.22754009	0.17222893	-0.0082566576	-0.010383055	0.10667175	-0.57567072	0.21885792	0.089338442	-0.092530747	-0.062275958	0.041924826	-0.6620087	0.27794137	0.11188078	0.056127213	0.37746741	-0.044383811	-0.21299985	0.35975236	0.26223675	0.046225334	0.37899254	0.082135678	-0.19710694	0.33273937	0.13691978	-0.10407778	0.76562251	-0.10105779	-0.20772105	0.75003156	0.25975358	-0.044503304	0.85281705	-0.021810706	-0.093892981	0.83593159	0.2154375	-0.23059296	0.89806301	0.067383737	-0.069549256	1.2956235	-0.07771807	-0.12750871	1.3122752	0.24951916	-0.16375631	1.353801	0.078091762	-0.23216147	0.97139465	-0.14054254	-0.26310794	0.96535166	0.30864336	-0.15462378	0.72602829	-0.19396942	-0.10948875	0.74185475	0.33904773
